<?xml version="1.0" encoding="UTF-8"?>
<svg id="Layer_2" data-name="Layer 2" xmlns="http://www.w3.org/2000/svg" viewBox="0 0 257.64 248.86">
  <defs>
    <style>
      .cls-1 {
        fill: #003462;
      }

      .cls-2 {
        fill: #910811;
      }
    </style>
  </defs>
  <g id="Layer_1-2" data-name="Layer 1">
    <g>
      <g>
        <path class="cls-1" d="M209.75,0l47.89,26.85-47.89,28.29v-10.16h-95.5v8.71h-34.66V10.16h130.16V0Z"/>
        <path class="cls-2" d="M126.66,162.44c-11.5,20.79-33.68,34.89-59.13,34.89-6.1,0-12.03-.81-17.66-2.33C21.14,187.24,0,160.99,0,129.8s21.14-57.44,49.87-65.2c4.81-1.31,9.86-2.08,15.04-2.27.87-.04,1.75-.06,2.62-.06s1.75.02,2.62.06c24.38.92,45.44,14.77,56.55,34.89h-51.64c-18.02,0-32.62,14.61-32.62,32.62s13.69,31.71,30.94,32.6h53.28Z"/>
        <path class="cls-2" d="M158.29,162.44h.52l-18.84,34.6c-6.89,0-13.69.13-20.35.29h-52.1c-6.1,0-12.03-.81-17.66-2.33v-32.56h108.42Z"/>
        <path class="cls-2" d="M195.44,79.1l-47.89-26.84v10.07h-82.64c-5.18.19-10.22.96-15.04,2.27v32.62h97.68v10.17l47.89-28.29Z"/>
      </g>
      <path class="cls-2" d="M76.73,162.44c-.56.02-1.12.04-1.68.04s-1.12-.02-1.68-.04h3.35Z"/>
      <polygon class="cls-1" points="252.1 116.11 252.1 248.86 217 248.86 217 197.33 151.14 197.33 169.87 162.46 217 162.46 217 116.11 252.1 116.11"/>
    </g>
  </g>
</svg>