<?xml version="1.0" encoding="UTF-8"?>
<svg id="a" data-name="Ñëîé 1" xmlns="http://www.w3.org/2000/svg" viewBox="0 0 566.9296857 566.9296857">
  <defs>
    <style>
      .b {
        font-size: 39.4936638px;
      }

      .b, .c {
        font-family: Roboto-Bold, Roboto;
        font-weight: 700;
      }

      .c {
        font-size: 50.7952042px;
      }

      .c, .d {
        fill: #fff;
      }

      .e {
        fill: #f1f2f2;
      }

      .f {
        fill: #bcbec0;
      }

      .g {
        fill: #58595b;
      }

      .h {
        fill: #414042;
      }

      .i {
        fill: #cc2632;
      }

      .j {
        fill: #221d19;
      }
    </style>
  </defs>
  <path class="e" d="M240.0246761,316.9302562c-5.3186304-1.13614-10.4126199-1.8929156-15.6473256-2.1483821-2.3075842-.1285432-4.3535796-1.5637678-5.1651694-3.7057656l-2.7590339-5.5465826-3.2994347-5.2402324-3.8438852-4.9242343-4.3307105-4.5048966c-1.7001484-1.4558782-2.3687113-3.7937877-1.780476-5.9775692,1.4215031-5.1879194,2.2910756-10.4604067,2.8230434-16.0848156.2643045-2.3831712-1.4804862-4.8202038-4.1511169-6.3261319-1.3751456-.8027281-2.8096079-1.4777467-4.2711318-2.1002856l-4.3689209-1.8941067c-2.9318859-1.1008359-6.0521557-.5601492-7.6078002,1.1470981-3.5851789,3.8709708-6.863555,8.2415116-9.6719003,12.509356-.6234918.9644314-1.4989721,1.6128172-2.5089511,2.1025011-1.0126471.4915897-2.1399968.7039861-3.2834025.5601969-2.0421124-.3377952-4.1110245-.3358418-6.1745767-.4003278-2.0652257-.1480057-4.1235608.1175851-6.1845581.224498-4.1516886.3416305-8.2515225,1.1803536-12.2502741,2.3499634-2.1563624.5972876-4.4592774.1815232-6.066544-1.4455871-3.8239462-3.8984851-7.9350183-7.2479936-12.5193133-10.4736041-.9515676-.6675624-2.1922809-.9920173-3.5431569-.9631212-1.3105643.0892847-2.7081452.5685822-3.9963694,1.3751456-1.3324566.8523968-2.6881348,1.6726579-3.9803611,2.5809886l-3.7551961,2.901775c-2.5116191,1.8647819-3.5548059,4.9001503-2.8326198,7.1341961,1.6217503,5.1237669,3.5344143,9.9311069,5.9574395,14.6305097,1.0674375,2.0843964.6903123,4.4523454-.6205855,6.3310393-2.4354841,3.3352153-4.5867202,6.8825411-6.3038821,10.6373085-.8096318,1.9181668-1.7591746,3.783044-2.3259985,5.7934018-.652145,1.978484-1.344987,3.9456288-1.7249232,5.9988422-.2466762,1.0981202-.8081595,2.0684833-1.58728,2.8473656-.7683768.7787156-1.6480498,1.3860322-2.732377,1.6706807-5.0898205,1.3783616-10.4269604,3.217249-15.3383307,5.5740017-2.0403019.9619063-3.6090484,3.6821819-3.4531576,6.7383231.2217347,3.1660794.2986319,6.3477384.905091,9.4755122.4831567,3.106072,2.3727848,5.5682606,4.7552175,6.0405306,5.3186779,1.1364259,10.4126673,1.8929156,15.6475157,2.1486203,2.3074412.1285909,4.3534365,1.5635295,5.1650264,3.7058609l2.7590338,5.5462491,3.2992917,5.24028,3.8439804,4.9241866,4.3307581,4.5048966c1.7000054,1.4559735,2.3688116,3.7939783,1.780333,5.9776645-1.4214554,5.1878718-2.2909802,10.4603114-2.8229004,16.0850062-.2643045,2.3828854,1.4803433,4.8200133,4.1510215,6.3259414,1.3752409.8026328,2.8097984,1.477842,4.2711794,2.1001903l4.369069,1.8943449c2.9317376,1.1005977,6.0521027.5601969,7.6076995-1.1473363,3.5851312-3.8709708,6.8635548-8.2415116,9.6718524-12.509356.6233965-.9643838,1.4989482-1.6127695,2.5089987-2.1022152,1.0125041-.4918279,2.1399015-.7042243,3.2834024-.5604827,2.0420647.3377952,4.1108815.3359371,6.1745289.4003278,2.0654163.148244,4.1236085-.1172993,6.1845165-.2244027,4.1517839-.3417258,8.2515645-1.1804488,12.2502209-2.3499634,2.1565054-.5973829,4.4593728-.1816185,6.0666395,1.4454918,3.8239939,3.8984851,7.9350185,7.2479936,12.5193612,10.4736041.9517105.6678006,2.1923336.9923031,3.5432523.9633118,1.3104214-.0894752,2.7079596-.5686775,3.9962742-1.3753362,1.3323137-.8523492,2.6879968-1.6726102,3.9804565-2.5807981l3.7549579-2.9019179c2.5116191-1.8647342,3.5549489-4.9001979,2.8329057-7.1340056-1.6218933-5.1240051-3.5346526-9.9312975-5.9576303-14.6307479-1.0673899-2.0843964-.6901218-4.4521548.6204902-6.330944,2.4355795-3.3353105,4.5869155-6.8823505,6.3038822-10.6373085.8099223-1.9180716,1.7593221-3.7831393,2.3261415-5.7934971.6520305-1.9783887,1.3449394-3.9456288,1.7247803-5.9987946.2467715-1.0981678.8084454-2.0682927,1.5873753-2.8474133.7682816-.7786203,1.6482404-1.385794,2.7323295-1.6705854,5.0900588-1.3782186,10.426913-3.217249,15.3385693-5.5738587,2.040159-.9621445,3.6089056-3.6824201,3.4528718-6.7385136-.2215441-3.1657936-.2985366-6.3477861-.9049957-9.4755598-.483109-3.106072-2.3728801-5.5681653-4.7552176-6.0405306ZM191.3041529,325.1130705c.5613165,1.183641.7278319,2.4915611,1.1373788,3.7263001.1489824.6329491.1968646,1.2877429.3219774,1.9260519.1199197.6400957.2517265,1.280239.2447467,1.938082.0340416.6522687.0821857,1.3027984.1445992,1.9543762l-.0634855,1.9625948-.010172.9829649c-.0310162.3259319-.0940967.649553-.1342367.9746272-.0892847.6496483-.164824,1.3002256-.2265229,1.9546621-.1637521.6365462-.3136874,1.2742597-.4499727,1.9155941-.0725378.3194046-.1229451.6452412-.2043685.9625257l-.3238355.9279839-.6061256,1.8679264c-.279622.5917371-.5455464,1.1873334-.7990595,1.7893378-.2165653.6212287-.5576479,1.1787575-.8876533,1.7401454-.3341504.5581005-.6012897,1.157818-.9562129,1.7026021-.8040859,1.0225808-1.4044228,2.1964072-2.3339313,3.1194599-1.5754405,2.0818713-3.6796568,3.6832062-5.7306786,5.3320898-2.246862,1.3700715-4.4670912,2.8062966-6.9599386,3.5821059-1.1836886.5613403-2.4915372.7278319-3.7262048,1.1373311-.6328776.1490539-1.2877429.1970075-1.9260281.3219536-.6401195.1200864-1.2803104.2517741-1.9381058.2447467-.6522925.034256-1.3028936.0824239-1.9543762.144766l-1.9627675-.0634855-.9827981-.0101958c-.3260748-.03104-.6496244-.094192-.9747701-.1342843-.6495709-.0893085-1.3001779-.1646573-1.9545906-.2265705-.6366415-.1638473-1.2741405-.3135206-1.9156178-.4499727-.3193808-.072514-.6452174-.1229451-.9623351-.2043685l-.9281744-.3238117-1.8678549-.6059826c-.5916656-.2798126-1.1872619-.5457608-1.7893615-.7990119-.6211572-.2166606-1.178728-.5577194-1.7401216-.8877724-.5581005-.3341504-1.1576989-.601385-1.702602-.9562129-1.0226999-.8040621-2.1965262-1.404399-3.1195075-2.3340265-2.0820141-1.5754405-3.68323-3.6795138-5.3320658-5.7306548-1.3701191-2.2466953-2.8063442-4.4669006-3.5821058-6.9599148-.5614118-1.1835933-.7279272-2.4914658-1.1372782-3.7261096-.1489877-.6329491-.1970604-1.2878382-.3219827-1.9260519-.1201102-.6402386-.2518694-1.2804296-.2448419-1.9380343-.0340892-.6525069-.0822334-1.3030366-.1446945-1.9545191l.0635331-1.9626901.0102196-.9829649c.0310214-.3259319.094049-.649553.1342367-.9746272.0892846-.6496483.1646811-1.3001779.2265229-1.9546621.163752-.6365462.3135444-1.2741644.4498774-1.9155464.0725855-.3194523.1229451-.6451936.2045114-.9623351l.3236979-.9281744.6060726-1.8679264c.2796273-.5916895.5457846-1.1871905.7991548-1.7893854.21647-.6211334.5575526-1.1787098.8876533-1.7401454.3341028-.5580529.6013373-1.157818.9562129-1.7026021.8040859-1.0225808,1.4043275-2.1963595,2.3339788-3.1194599,1.5753928-2.0818713,3.6796567-3.6832062,5.730684-5.3320898,2.2468088-1.3700715,4.4670378-2.8062966,6.9598852-3.5821059,1.1836468-.5612927,2.4915372-.7278319,3.7262047-1.1373311.6329252-.1490539,1.2876476-.1969122,1.9260757-.3219536.6400242-.1200388,1.2802151-.2517265,1.9380581-.2447467.6524354-.0340654,1.3028043-.0823763,1.9542809-.1447183l1.9628152.0634855.9828935.0103864c.3259795.0308494.6495768.0939538.9746272.1340937.6496244.0893085,1.3003209.1646096,1.9547335.2265229.6365462.163895,1.2741406.3135683,1.9155703.4499727.3194285.072514.645265.1229451.9623828.2043685l.9281268.3238117,1.8677596.6060779c.5917609.2797173,1.1874049.5456655,1.7895522.7991548.6211096.2164224,1.1785907.5575764,1.7401693.8876771.55791.3341028,1.1576989.601385,1.7026021.9562605,1.0224617.8039668,2.1963357,1.404256,3.1194123,2.333836,2.0819189,1.5754882,3.6832777,3.679752,5.332066,5.7306548,1.3701192,2.2469335,2.806249,4.4669959,3.5821059,6.9599148Z"/>
  <path class="e" d="M548.7313337,272.110124c-4.0302681-2.7881205-8.1986083-5.3824494-12.3549422-7.7523994-1.8283581-1.0505716-2.8411719-3.080106-2.5277704-5.1425862.3601878-3.7269671.4286759-7.4832591.6516255-11.2233998-.2288812-3.7727053-.2850296-7.5632532-.6664666-11.321165-.306112-2.0147648.652626-4.0024441,2.4108285-5.0773856,4.1878027-2.5528549,8.4859724-5.3768512,12.4498488-8.3844671,1.6466205-1.2436246,2.3266179-3.6649586,1.7120117-6.0458191-.6870249-2.4576148-1.1644881-4.97912-2.1227735-7.3517143-.8514916-2.3696165-2.8556557-4.0304587-4.9796441-4.1075704-4.8735174-.1831908-9.5353291-.2178279-14.4354079.0859972-2.125251.1123919-4.1235072-1.0254871-5.0293843-2.9050862-1.4876805-3.4544203-3.6179103-6.5592535-5.5266436-9.7842922-.9230051-1.6561969-2.0788697-3.154907-3.2190118-4.6644798l-3.3985578-4.5425114c-1.27395-1.5879947-1.6324703-3.7045507-.722996-5.5709525,2.1452138-4.4232588,4.1263421-9.0267544,5.9303541-13.7956458.7506533-1.9738626-.0270379-4.3302817-1.8315264-5.9914574-1.9089239-1.6841877-3.7188915-3.4883427-5.7347283-5.0434155-2.0015675-1.5190778-4.5898218-1.8209495-6.4213482-.7341923-4.2074081,2.4909179-8.1629945,4.9966292-12.0870168,7.8414459-1.7310216,1.2449825-4.0332459,1.3744786-5.8165091.2912947-3.1344201-2.0757014-6.5529169-3.6290828-9.9355378-5.2483557l-2.5566426-1.2298079-2.6607207-.9836319-5.3291121-1.9498262c-1.8878892-.7842661-3.372044-2.2447181-3.6088103-4.3326163-.593357-4.8634883-1.4250288-9.7908909-2.4991126-14.7621021-.4282709-2.1274188-2.3471048-3.7467394-4.7796351-4.0960167l-7.5661118-1.1375217c-2.4941577-.281099-4.8382847.9954953-5.7864696,2.8862907-2.1850917,4.3698976-4.1558336,8.7601392-5.9113919,13.1553833-.7798352,1.8690936-2.6434736,3.2306846-4.7267265,3.3638254-3.7430946.1976745-7.499863.2573247-11.1911925.9793202l-5.6085435.8577568c-1.8489879.3868684-3.6691275.9164064-5.5047751,1.3692139-1.9740293.5074789-4.0997806-.2323116-5.4238281-1.8496549-3.1160057-3.7503365-6.4503157-7.3718677-10.0223688-10.9291035-1.4792475-1.4822014-4.0029206-1.8828865-6.3028817-1.0169112l-6.9073398,3.2982436c-2.2688259,1.0917359-3.6663403,3.2280403-3.3893625,5.4273061.5428783,4.8938375,1.2787382,9.6880992,2.2005522,14.3690162.4210052,2.0951401-.5435453,4.0488969-2.2182042,5.2925216l-4.504444,3.3671128-2.2509832,1.6851882c-.7317149.5839235-1.3986817,1.2469359-2.1009288,1.8667353-2.7905503,2.5522356-5.6832967,5.0018938-8.1206629,7.9073612-1.3708338,1.5075718-3.5452295,2.0469959-5.5273106,1.4067335-4.7601487-1.564935-9.4226751-2.7330679-14.364228-3.8159183-2.0401114-.4465185-4.3670628.5832565-5.8210829,2.5591201-1.452686,2.0901851-2.707912,4.3177752-4.0529943,6.4824277-1.2815254,2.1633423-1.3568265,4.6871821.0475962,6.3829473,3.1046188,3.8343803,6.3186518,7.4802575,9.6284253,10.929032,1.4627865,1.5283684,1.7982234,3.7352095.9548312,5.6412272-1.2233998,3.5413942-2.7332585,6.9948139-3.7112923,10.6127242l-1.4136895,5.4954845-.6942906,2.7505771-.4298908,2.8039382c-.3080892,2.0147172-1.8193296,3.6501414-3.8221596,4.1885888-2.3981552.6363556-4.8224431,1.3319802-7.2168106,2.0911856-2.3248074.7654944-4.6543793,1.5909486-6.9861189,2.4773632-1.9425605.7299282-3.3058428,2.8550601-3.4193544,5.3027412-.0477392,1.2706626-.1403589,2.5413251-.1415262,3.8116542l.1705651,3.8119877c.1185856,2.5070215,1.5456393,4.6601204,3.5511135,5.3326854,2.2935054.775714,4.5461562,1.5006634,6.8645555,2.16632,2.3587061.6620357,4.7130289,1.2699717,7.0610866,1.8239034,2.0628137.4952821,3.6381113,2.1557907,3.9536806,4.2182948l.4260555,2.7795446.6954817,2.724897,1.4013021,5.4476977c.9892301,3.6491885,2.5106663,7.1332671,3.7453815,10.7056774.8399618,1.8549196.5315152,4.0119967-.8528256,5.541985-3.3084156,3.6438762-6.5091083,7.5095823-9.5850693,11.5858268-1.225377,1.6574833-1.1800677,4.1619082.0937155,6.2616221,1.3650927,2.1511455,2.5637416,4.4170174,4.0988277,6.450816,1.4912776,2.0222926,3.8874079,3.0408951,5.9487685,2.5119765,4.7419249-1.2155862,9.2119224-2.4879163,13.8093434-4.146424,2.0089046-.7084885,4.2511929-.1832146,5.654496,1.3602807,2.4150688,2.8807402,5.291521,5.3004543,8.0540805,7.8338705.7089887.6247782,1.3799338,1.2956756,2.1206772,1.8819098l2.2707793,1.7000055,4.544179,3.3964615c1.6438571,1.20277,2.6044056,3.1001641,2.2503639,5.1544496-.8150917,4.8433826-1.4207885,9.8142603-1.8084906,14.8955764-.1926004,2.1550999,1.243315,4.1559766,3.4429143,5.2493562,2.3063693,1.0900684,4.5805551,2.2572484,6.9297562,3.2461926,2.3569433.8847232,4.9327149.436561,6.385258-1.1259919,3.3309988-3.560547,6.4463613-7.1645691,9.3745548-10.904686,1.3096829-1.688833,3.4848885-2.4774108,5.505728-1.9580686,1.8201395.4464709,3.6228176.9790343,5.4576076,1.3520383l5.55978.8505387c3.7238226.7288801,7.5143706.781598,11.2900298.9839416,2.0350373.1334267,3.8648962,1.4281494,4.67863,3.2309704,1.9331985,4.4704024,4.1085471,8.9348017,6.5246164,13.3742117.9946853,1.7985569,3.3071292,3.0886343,5.7346092,2.7066971l7.5651113-1.1444062c1.2372165-.2036538,2.3556092-.6834516,3.1927838-1.4407274.8307427-.7954862,1.3965377-1.7814051,1.5871609-2.8428156.8714068-4.8367839,1.5278443-9.6324035,1.972195-14.3713031.1868593-2.1386151,1.6840686-3.6729151,3.6172194-4.4739995l5.2826593-1.9329841,2.6365176-.9774144,2.5343929-1.2188975,5.1116177-2.4635226c1.7328321-.7678289,3.2662745-1.9020394,4.9084642-2.8365743,1.7418606-1.0577897,3.9831483-.9612393,5.7075713.2109195,4.1065698,2.8009367,8.2763869,5.261553,12.7129622,7.6806001,1.8341468,1.0020939,4.3592969.6696111,6.3117673-.8152823,1.9524228-1.6311362,3.8060084-3.3832403,5.6994718-5.08589,1.8431992-1.706628,2.6197231-4.1088806,1.7308311-6.1466336-1.8997048-4.5458465-3.9557769-8.9427106-6.157544-13.1794435-.9849183-1.8872221-.6385949-4.05945.6534836-5.694898l3.3688995-4.502967c1.13159-1.4953511,2.2740905-2.9832222,3.1893535-4.6249115,1.9305066-3.2507665,4.0678115-6.3891886,5.5696422-9.8732672.8849376-1.8361241,2.814134-2.968667,4.894433-2.9139956,5.0640453.1825714,9.8240511-.0306588,14.8721833-.3898461,2.0801561-.1499115,4.0149745-1.8024875,4.8440734-4.1167656.9023991-2.3893649,1.3790762-4.9118945,2.0679592-7.3681991.627208-2.4394625-.1056265-4.90501-1.829573-6.1110912ZM458.0326841,303.0464692c-5.2479745,2.3192569-10.7642318,4.1597642-16.5017473,4.8189413l-2.1339222.342774c-.7137055.0983132-1.4432525.0744912-2.1633423.1233739l-4.3314014.236814-4.3315681-.236814c-.7200898-.0488826-1.4494939-.0250607-2.1633423-.1233739l-2.1338746-.342774c-5.7375631-.659177-11.2536775-2.4996843-16.5017949-4.8189413-5.3178681-2.2401204-10.0679163-5.6452769-14.4887929-9.3186685-8.7570423-7.5462205-15.2110981-17.6494648-18.4700593-28.6704257-1.6884757-5.5147327-2.2663722-11.2864565-2.487154-17.0656365.2207818-5.7791324.7986784-11.550618,2.487154-17.0655651,3.2589612-11.0206988,9.713017-21.1239908,18.4700593-28.6704495,4.4208766-3.6731534,9.1709248-7.0785242,14.4887929-9.3186685,5.2481174-2.3189949,10.7642318-4.1597642,16.5017949-4.8189413l2.1338746-.3425357c.7138484-.0985514,1.4432525-.0747294,2.1633423-.1233739l4.3315681-.2370522,4.3314014.2370522c.7200898.0486444,1.4496368.0248225,2.1633423.1233739l2.1339222.3425357c5.7375155.659177,11.2537728,2.4999464,16.5017473,4.8189413,10.4871349,4.7454744,19.5536481,12.6574809,25.7925679,22.3468427l2.2545804,3.688995,1.8770025,3.8884323c.6987453,1.2655885,1.1570557,2.6315388,1.6366391,3.9875078.4386335,1.3674749,1.1165346,2.6604825,1.39811,4.0773403,1.6884757,5.5149471,2.2664675,11.2864326,2.487154,17.0655651-.2206865,5.7791801-.7986784,11.5509039-2.487154,17.0656365-.2815754,1.4168578-.9594765,2.7098415-1.39811,4.0773403-.4795834,1.3559451-.9378938,2.7221575-1.6366391,3.9875078l-1.8770025,3.8884085-2.2545804,3.688995c-6.2389198,9.6893618-15.305433,17.6013683-25.7925679,22.3468427Z"/>
  <g>
    <path class="g" d="M400.6650331,296.4071264c4.296526.4084987,8.5325681.2571103,12.5869917-.2119677,14.5537792-1.6942167,26.9289938-7.6247138,32.1332312-7.6247138.1814994,0,.3630464.0151508.529538.0302777.1058171,0,.2117294.0149602.3176418.0452617.1210393.0151508.2269517.0302777.3328879.0605554,0,.0151746.0150555.0151746.0150555.0302777.151317.0454523.2874118.1060077.4084987.181547,4.4629938,2.5871109,4.6293662,10.3479433-12.7987927,25.476546-3.5834399,3.1118607-7.142105,5.6804858-10.5343977,7.79728-8.4045966,5.2446633-24.0672397,5.1481844-26.7369175-4.3920759-1.3242858-4.7324676,2.5002799-14.5181415,3.7462629-21.3929882Z"/>
    <path class="f" d="M400.6650331,296.6793397v-.2722134c4.296526.4084987,8.5325681.2571103,12.5869917-.2119677,14.5537792-1.6942167,26.9289938-7.6247138,32.1332312-7.6247138.1814994,0,.3630464.0151508.529538.0302777.1058171,0,.2117294.0149602.3176418.0452617.1210393.0151508.2269517.0302777.3328879.0605554,0,.0151746.0150555.0151746.0150555.0302777,2.0877553,4.0242888-9.4410895,13.1619344-20.700508,16.6112568-9.2243098,2.8259021-25.2148381,1.7246374-25.2148381-8.6687344Z"/>
  </g>
  <g>
    <path class="i" d="M328.1755448,141.6122697c-3.7437616.1167275-6.6955865,3.2651787-6.5796689,7.0297131.0981226,2.6992408,1.7615852,4.9684002,4.0760539,5.9892896l-2.0822048,15.87766c-.1086995.8288369.4748428,1.5881376,1.3036559,1.6961463.0666538.0087188.1329026.0132688.1987227.0132688.7476994,0,1.3976812-.5539317,1.4982812-1.316496l2.0577634-15.6913962c1.8189008-.0670588,3.501421-.8342207,4.7396857-2.1614842,1.2409566-1.3297886,1.8880321-3.0627637,1.8223788-4.8797825-.06582-1.8158039-.8347924-3.4987291-2.1637711-4.7365888-1.3303603-1.2398846-3.0654317-1.8791227-4.8708969-1.8203301ZM331.1762285,150.9851808c-.6909555.7385994-1.6303263,1.1671086-2.6462846,1.2039373-2.0608841.0976938-3.8344756-1.5661738-3.9098244-3.6489979-.0641525-2.0878029,1.5728201-3.838573,3.657288-3.903583.0465957-.0012387.09312-.0012387.1403589-.0012387.955927,0,1.8621376.356019,2.5663858,1.0117895.7385279.6885019,1.1654172,1.6220362,1.2018171,2.6313959.0368287,1.0076445-.3220965,1.9693602-1.0097408,2.7066971Z"/>
    <path class="i" d="M346.1739296,137.5965091c-.76528-.3378428-1.6570069.0045262-1.9967078.7683292-.3396533.7638507.0043594,1.6576977.7675907,1.9975892,1.3185923.5849717,2.3703312,1.8791227,2.8128953,3.4601614.5332066,1.9015153.1382626,3.9433419-1.1116034,5.7483783-.4765104.6872631-.3051115,1.6294925.3817228,2.1055979.262494.1813565.5630079.2687115.8598531.2687115.4794643,0,.951377-.2272852,1.2449349-.6516731,1.7735438-2.5589057,2.3200192-5.5032743,1.5386118-8.2882503-.6833087-2.4388431-2.3645663-4.460016-4.4972974-5.4088441Z"/>
    <path class="i" d="M362.0953029,139.594408c-1.0364452-3.6953554-3.5732203-6.750639-6.7866816-8.1702364-.7644224-.341559-1.6576262.0057887-1.9950403.7712593-.338224.7638507.0074563,1.6576977.7718787,1.9942303,2.3956063,1.0610771,4.301481,3.3865515,5.096324,6.2216012.9424914,3.3624914.2519171,6.9526729-1.9443233,10.1098429-.4771536.6868343-.3080416,1.6294925.3783878,2.1068367.262899.1830002.5642704.2703553.8619256.2703553.4785829,0,.9493283-.2260464,1.2432435-.6487669,2.7214428-3.9135406,3.5649541-8.4079079,2.3742856-12.6551225Z"/>
    <path class="i" d="M309.9494937,132.8810265c-2.267873.5551704-4.2809465,2.2471956-5.3836643,4.5250261-1.2610385,2.6032145-1.2409328,5.5993006.0569344,8.4360416.2539896.5555992.8021325.8834845,1.3761461.8834845.2104907,0,.4247691-.0443088.6286611-.1374526.7594436-.346919,1.093999-1.2453398.746008-2.0045929-.9145007-2.0004478-.9447307-4.0824144-.0842582-5.8593171.7143487-1.4746499,1.9776979-2.5605971,3.3794764-2.903371.8118757-.1995326,1.3084442-1.0180308,1.1097215-1.8290489-.1987227-.8126857-1.0186264-1.3090635-1.8290251-1.1107697Z"/>
    <path class="i" d="M303.850647,126.2856113c-.2024151-.8110181-1.0275358-1.298701-1.8327652-1.1033134-3.4148758.8478945-6.4480288,3.4171627-8.1137545,6.8740843-1.9103532,3.9669256-1.8704277,8.5349503.113059,12.865375.2547757.5539317.8029187.8818169,1.3760985.8818169.2113483,0,.4253647-.0443088.6294949-.1374526.7592769-.3485389,1.0931414-1.2452922.7451981-2.0062366-1.6013588-3.4953702-1.6510276-7.1489181-.1380482-10.2899369,1.2794529-2.654932,3.5663596-4.6185511,6.1163797-5.250714.8112325-.2012001,1.3053473-1.0226046,1.1043377-1.8336228Z"/>
  </g>
  <path class="g" d="M298.2031069,402.8536302s16.6263599-.1210393,32.6475709-1.0590284c-6.5203999,6.5204475-21.4372732,19.909286-33.8276147,19.6521042-11.7398119-.2420548-25.77918-12.6929041-32.798864-19.7277389,16.4296859.9985207,33.9789079,1.1346631,33.9789079,1.1346631Z"/>
  <path class="j" d="M299.0351837,383.579747c20.9229097-.196674,51.6794231-1.6792566,72.995657-6.3086228l.1209917.5294904s-3.6610995,19.3343909-20.7715927,22.057549c-5.4917207.8774813-12.9500858,1.4977095-20.5295618,1.9364383-16.021211.9379891-32.6475709,1.0590284-32.6475709,1.0590284,0,0-17.549222-.1361424-33.9789079-1.1346631-7.1104695-.4387288-14.009138-1.0438538-19.1830978-1.8608036-17.1104933-2.723158-20.7716404-22.057549-20.7716404-22.057549l.1664439-.7110374c21.5280109,4.7957387,53.1468788,6.3086228,74.3723272,6.4901698.0756823.0151031.151317,0,.2269517,0Z"/>
  <path class="g" d="M401.592207,208.8727219c-2.2844293-4.3421451-4.9774049-8.3661957-8.0636093-11.9064464-1.7851689-2.0723901-3.7065041-3.9634714-5.7639817-5.6732201-23.7368532-19.712469-62.2240642-21.6942167-83.706742-21.8910574-2.5869441-.0151746-12.0121444-.0151746-14.6596677.0151031-21.512884.1968646-59.8790557,2.2087469-83.5554012,21.8759543-29.2889863,24.3269704-32.7836895,89.0170109,1.4372494,96.8535256h.0151508c.7109898.166563,1.4371541.3178324,2.1785169.4236733,11.6489788,1.7700896,30.7867434,3.2526722,52.3752859,4.0846536.4992127.0151269.9833461.0302777,1.4826064.0454046l21.8457719.5750618c4.9319288.0604363,9.8940638.1058409,14.8411433.090714,33.8730432-.0755394,66.7778434-2.1786598,84.1151931-4.795834,1.9516367-.3024911,3.7821149-.7716166,5.5068238-1.4068764,8.4266558-3.0560221,14.2360659-9.9245082,17.6097536-18.7443928,5.4911728-18.0761396,1.6333755-41.8129452-5.6580931-59.5462632Z"/>
  <g>
    <path class="h" d="M183.3264217,237.3776327c-.3924665,3.3020551-.5795641,6.5888165-.5655092,9.8216927.0480489-3.2432625.2442702-6.5287138.5655092-9.8216927Z"/>
    <path class="h" d="M401.59235,208.872579c-2.2844769-4.3420021-4.977119-8.3660527-8.0638952-11.9061605-1.7851689-2.0724854-3.7061229-3.9636143-5.7636958-5.6734583-12.5698161-10.4385381-29.2755031-15.903745-45.403222-18.7661184,6.5891977,3.3947939,12.8008413,7.8150511,18.1463905,13.5957082,1.7843113,1.9300778,3.4502752,4.0650482,4.9977726,6.4049588,2.6760859,3.9967507,5.0110415,8.5400006,6.9916218,13.4421281,6.3226063,20.0205583,9.6677076,46.8191031,4.9058914,67.226768-2.1039304,7.1646644-5.3091255,13.1775854-9.6585838,17.2782236,6.3341838-.5833041,11.8933443-1.2258297,16.3893792-1.9043739,1.951589-.302634,3.7822579-.7717119,5.5061568-1.4067811,8.4273704-3.056165,14.23659-9.9247941,17.6098489-18.7446311,5.491268-18.0759967,1.6336614-41.8130404-5.6576643-59.5462632Z"/>
  </g>
  <path class="g" d="M403.3470744,301.4295547c-3.6443288-12.4360321-13.3434814-13.2829737-13.3434814-13.2829737l-.3630464-.9832031c-1.7247088.6352598-3.5551871,1.1043854-5.5068238,1.4068764-17.3373496,2.6171742-50.2421499,4.7202946-84.1151931,4.795834-4.9470795.0151269-9.9092145-.0302777-14.8411433-.090714l-21.8457719-.5750618c-.4992603-.0151269-.9833937-.0302777-1.4826064-.0454046-21.5885425-.8319814-40.7263071-2.314564-52.3752859-4.0846536-.7413628-.1058409-1.4675271-.2571103-2.1785169-.4236733h-.0151508c-.4387764.0605554-9.2504425,1.3248098-13.2829737,13.1620297-3.6148849,10.6112473-3.9044406,24.6043769-3.1770137,32.8140863.8965627,10.1180615,5.1739836,30.7865529,16.4751382,37.1406756,4.1603598,2.3296671,10.1210393,4.2510499,17.1406518,5.8244894,21.5281062,4.795834,53.1468788,6.3086943,74.3724225,6.4902651.0756347.0151031.1512217,0,.2268564,0,20.9229574-.196674,51.6794708-1.6794471,72.995657-6.3087181,7.3827543-1.6035266,13.6460678-3.5854648,17.9728-6.0060365,7.8216022-4.4024622,12.2693976-13.1923074,14.5689061-23.237569,1.0287269-4.462827,1.7559394-9.1776902,1.9062082-13.8730194.3228588-10.085759-.4781541-23.6684604-3.1316329-32.7232294Z"/>
  <path class="h" d="M403.3468362,301.4294594c-3.6439953-12.4356986-13.3431956-13.2827355-13.3431956-13.2827355l-.3634752-.9832508c-1.7238989.6350692-3.5545677,1.1041472-5.5061568,1.4067811-3.0900874.4665766-6.6935378.9153582-10.6894547,1.3404847.1341414.3585679.2798602.6943144.4024241,1.0743459,2.912876,9.0545784,3.7922154,22.6374704,3.4378164,32.723277-.1647526,4.6951863-.9629545,9.4101924-2.0923291,13.8731147-2.5245783,10.0452617-7.4072671,18.8348686-15.9936014,23.2373308-4.750215,2.4206193-11.6259192,4.4024622-19.7303593,6.0058935-23.4000347,4.6293186-57.1641163,6.1122347-80.1327356,6.3089087-.0828051,0-.1656102.0152937-.2484152,0-14.8765904-.1159176-34.3974833-.7795493-52.7235151-2.4889407.3112814.2045114.6085554.4371565.9314619.6188941,4.1598834,2.3295718,10.1206105,4.2509546,17.140366,5.8241559,21.5279157,4.7957387,53.1466882,6.3088848,74.3723748,6.4902651.0762064.0152937.1515552,0,.226904,0,20.9234814-.196674,51.6794231-1.6792089,72.9953711-6.3085275,7.3832784-1.6034313,13.6462107-3.5856554,17.9733241-6.0058935,7.8213163-4.4024622,12.2693023-13.1924503,14.5686679-23.2377596,1.0291557-4.4628747,1.7561776-9.1774997,1.9059938-13.8730671.3229779-10.0858542-.4777015-23.6683174-3.1314662-32.723277Z"/>
  <path class="f" d="M217.6336675,367.1264535c-1.9730764-2.418118-3.6249616-5.3799005-4.9911739-8.6049392-3.5289115-7.4254671-5.6427756-15.6723148-6.0285958-24.2905705-.0828289-1.8530376-.0513363-3.6883041.0744674-5.5036555-.1813088-8.1446039.5150543-18.8754374,3.2085063-27.4187254,2.1014767-6.6699541,5.6071856-9.9819191,8.3404442-11.6143417-3.2432625-.3584965-6.1951112-.7335492-8.7635457-1.123967-.7410769-.1056027-1.4680512-.2571103-2.1784692-.4235304h-.0149125c-.4388241.0604125-9.2512048,1.3247622-13.2835454,13.1618391-3.6142179,10.6111996-3.9040118,24.6043293-3.1770137,32.8143721.8967057,10.1176804,5.1741741,30.7861717,16.4754717,37.1406279,4.1598834,2.3295718,10.1206105,4.2509546,17.140366,5.8241559.8156158.1817376,1.6494077.3568766,2.4922757.5290854-3.495799-3.1000212-6.6115427-6.6248353-9.2942748-10.4903509Z"/>
  <path class="f" d="M304.0575405,169.4036179c-2.5866583-.0148887-12.0117156-.0148887-14.6596915.0149125-21.5130031.1970551-59.8790796,2.2090804-83.5548533,21.876121-29.289558,24.3269466-32.7836895,89.01713,1.4373923,96.8536924h.0149125c.711228.1664439,1.4373923.3179991,2.1784692.4235304,5.3529817.8134956,12.3015572,1.5649112,20.328981,2.2219443-1.8397926-1.6613663-3.5727915-3.4395077-5.1898966-5.3256579-10.1487204-5.5923207-15.6267672-17.118021-16.9747796-30.4231253-.7062492-21.0551453,5.1485179-35.6427755,9.8606416-44.8219427,3.232495-6.2960925,8.0034351-11.5389929,13.2860229-15.7187199,24.0707416-19.0488849,63.076866-20.9980203,84.9484132-21.1880241,2.6918322-.0298013,12.2742334-.0298013,14.9047717-.0149364,5.4242093.0472151,11.9165469.2020339,18.9801586.6992694-16.8091457-3.834023-33.7524565-4.4885786-45.5605421-4.5970637Z"/>
  <g>
    <path class="e" d="M365.2078067,415.4255188c1.9062082,0,3.4493224,1.5430903,3.4493224,3.4492985s-1.5431141,3.44937-3.4493224,3.44937-3.4492985-1.5431618-3.4492985-3.44937,1.5430903-3.4492985,3.4492985-3.4492985Z"/>
    <path class="e" d="M365.2078067,437.5738294c1.9062082,0,3.4493224,1.5582649,3.4493224,3.4644731s-1.5431141,3.4492985-3.4493224,3.4492985-3.4492985-1.5430903-3.4492985-3.4492985,1.5430903-3.4644731,3.4492985-3.4644731Z"/>
    <circle class="e" cx="334.723608" cy="428.4966499" r="3.449316" transform="translate(-131.4601792 708.3572389) rotate(-82.981878)"/>
    <path class="e" d="M334.723602,447.195656c1.9062082,0,3.4493462,1.5430903,3.4493462,3.4492985s-1.543138,3.44937-3.4493462,3.44937-3.4493224-1.5431618-3.4493224-3.44937,1.5431141-3.4492985,3.4493224-3.4492985Z"/>
    <path class="e" d="M334.723602,469.3439665c1.9062082,0,3.4493462,1.5430903,3.4493462,3.4492985s-1.543138,3.4644731-3.4493462,3.4644731-3.4493224-1.5582649-3.4493224-3.4644731,1.5431141-3.4492985,3.4493224-3.4492985Z"/>
    <path class="e" d="M300.1698467,435.4860741c1.9062082,0,3.4492985,1.543138,3.4492985,3.4493462s-1.5430903,3.4644255-3.4492985,3.4644255-3.4644731-1.5582173-3.4644731-3.4644255,1.5582649-3.4493462,3.4644731-3.4493462Z"/>
    <path class="e" d="M300.1698467,457.6343847c1.9062082,0,3.4492985,1.5582649,3.4492985,3.4644731s-1.5430903,3.4492985-3.4492985,3.4492985-3.4644731-1.5430903-3.4644731-3.4492985,1.5582649-3.4644731,3.4644731-3.4644731Z"/>
    <path class="e" d="M300.1698467,479.797846c1.9062082,0,3.4492985,1.5431141,3.4492985,3.4493224s-1.5430903,3.4493462-3.4492985,3.4493462-3.4644731-1.543138-3.4644731-3.4493462,1.5582649-3.4493224,3.4644731-3.4493224Z"/>
    <path class="e" d="M262.5449425,425.0473454c1.9062082,0,3.4644255,1.5430903,3.4644255,3.4492985s-1.5582173,3.4493224-3.4644255,3.4493224-3.44937-1.5431141-3.44937-3.4493224,1.5431618-3.4492985,3.44937-3.4492985Z"/>
    <path class="e" d="M262.5449425,447.195656c1.9062082,0,3.4644255,1.5430903,3.4644255,3.4492985s-1.5582173,3.44937-3.4644255,3.44937-3.44937-1.5431618-3.44937-3.44937,1.5431618-3.4492985,3.44937-3.4492985Z"/>
    <path class="e" d="M262.5449425,469.3439665c1.9062082,0,3.4644255,1.5430903,3.4644255,3.4492985s-1.5582173,3.4644731-3.4644255,3.4644731-3.44937-1.5582649-3.44937-3.4644731,1.5431618-3.4492985,3.44937-3.4492985Z"/>
    <path class="e" d="M233.8610574,415.4255188c1.9062082,0,3.4492985,1.5430903,3.4492985,3.4492985s-1.5430903,3.44937-3.4492985,3.44937-3.44937-1.5431618-3.44937-3.44937,1.5431618-3.4492985,3.44937-3.4492985Z"/>
    <path class="e" d="M233.8610574,437.5738294c1.9062082,0,3.4492985,1.5582649,3.4492985,3.4644731s-1.5430903,3.4492985-3.4492985,3.4492985-3.44937-1.5430903-3.44937-3.4492985,1.5431618-3.4644731,3.44937-3.4644731Z"/>
  </g>
  <path class="j" d="M389.6401654,280.8313858c-1.7238989.6015279-3.5545677,1.0453308-5.5061568,1.3314085-17.3374449,2.4765532-50.2428645,4.4666147-84.1154313,4.5378423-4.9472701.0144837-9.9094527-.0285625-14.8410004-.0857352l-21.8458672-.5439741c-.499308-.0140549-.9836796-.0285625-1.4829876-.0430463-21.5883519-.7874344-40.7258307-2.1900467-52.3749524-3.8650868-.7410769-.1001713-1.4680512-.2430315-2.1784692-.4007566h-.0149125c-.7923655-.1718277-1.5483311-.3957778-2.3001756-.6239206-5.3629154-.973722-10.3698357-2.8089885-14.9055817-5.3695379,3.9992282,6.1814136,9.6858838,10.6579859,17.2057572,12.3797646h.0149125c.710418.1664439,1.4373923.3179991,2.1784692.4239592,11.6491218,1.7698514,30.7866005,3.2524102,52.3749524,4.0845107.499308.0148887.9836796.0302539,1.4829876.0455476l21.8458672.5746568c4.9315476.0604125,9.8937303.10596,14.8410004.0906425,33.8725667-.0757776,66.7779863-2.1784454,84.1154313-4.7953576,1.951589-.3030628,3.7822579-.7716881,5.5061568-1.4071861,8.4331592-3.0635974,14.2167463-9.9251752,17.5924827-18.7429635-3.7499791,4.3867636-11.0512624,10.1612031-17.5924827,12.4092324Z"/>
  <path class="d" d="M236.8558571,182.8083217s-27.6097535,14.7958578-35.9607746,37.7611181c0,0-1.9062082-31.8609464,35.9607746-37.7611181Z"/>
  <path class="d" d="M198.5364717,307.1258106s2.9999928-7.1863662,5.4678749-10.093644c2.1001903-2.474171,5.9476727-4.6292233,8.761497-5.2403753,0,0-7.8186721-1.8551578-11.8071327,3.3263535-1.8167568,2.3602069-3.0626684,7.1480129-2.4222392,12.0076659Z"/>
  <path class="f" d="M368.6323543,373.5156422s17.4541248-1.4544012,24.6009704-11.1797103c7.1468694-9.7253568,7.6229986-19.2814348,7.6229986-19.2814348,0,0-5.1817972,10.3828424-12.7142486,17.3085489-8.0383342,7.39083-19.5097205,13.1525962-19.5097205,13.1525962Z"/>
  <path class="d" d="M218.683453,371.4836302s-9.1875763-.0443088-13.447488-5.9827862c-4.1915665-5.8432849-2.7670142-10.6174648-2.7670142-10.6174648,0,0,1.9537092,4.8164162,6.5889595,9.3164292,4.1000664,3.9804088,9.6255428,7.2838218,9.6255428,7.2838218Z"/>
  <path class="f" d="M343.4769043,397.2783421s10.7020327.9833223,16.4393576-4.4416493c5.6453246-5.3379024,4.6122383-10.2414354,4.6122383-10.2414354,0,0-2.9054674,4.5677389-8.8913266,8.5211812-5.2947608,3.4970615-12.1602692,6.1619034-12.1602692,6.1619034Z"/>
  <path class="f" d="M251.137947,396.9598666s-10.4428499.9833461-16.0411976-4.4416255c-5.5086104-5.3379262-4.5005848-10.2414592-4.5005848-10.2414592,0,0,2.8350973,4.5677627,8.6760001,8.5212527,5.1665511,3.4969901,11.8657823,6.161832,11.8657823,6.161832Z"/>
  <path class="f" d="M312.1365627,412.7435489s-8.2837241,6.4922185-17.4459062,5.1839173c-9.0152246-1.2873617-12.0298679-5.7827772-12.0298679-5.7827772,0,0,6.0839104,2.1272282,14.2893794,2.1192479,7.2581179-.0070513,15.1863947-1.520388,15.1863947-1.520388Z"/>
  <g>
    <path class="h" d="M304.7960923,306.5369321c12.4297431,0,22.5097371,9.7773839,22.5097371,21.8340038,0,12.0565961-10.0799941,21.8340038-22.5097371,21.8340038-12.4467281,0-22.5267222-9.7774077-22.5267222-21.8340038,0-12.05662,10.0799941-21.8340038,22.5267222-21.8340038Z"/>
    <path class="d" d="M305.5861948,313.5063995c11.0439014,0,20.0000476,8.95617,20.0000476,20.0000714s-8.9561461,20.0000476-20.0000476,20.0000476c-11.0590045,0-20.0151983-8.9561461-20.0151983-20.0000476s8.9561938-20.0000714,20.0151983-20.0000714Z"/>
    <path class="i" d="M303.754049,346.9260634c-.2977028,0-.5975973-.0871407-.8605678-.2703314-.6869773-.4757004-.8568992-1.4183348-.3811988-2.105312l7.0775475-10.201486-11.1625347,2.6120763c-.6197517.1418359-1.2595139-.1107959-1.6081719-.6411915-.348658-.5289186-.3309583-1.2188498.0457858-1.7300688l10.2421024-13.8875985c.4949486-.6722553,1.4419662-.8155205,2.1156508-.3191426.6722315.4964255.8155681,1.4434431.3191426,2.1156508l-7.8029258,10.579707,10.9911596-2.5721745c.6131292-.141812,1.243982.1049118,1.5963562.621991.3516357.5185799.348658,1.1996732-.0081233,1.7137984l-9.3194785,13.4340525c-.2940343.422506-.7653038.6500294-1.2447443.6500294Z"/>
  </g>
  <g>
    <path class="d" d="M381.5441821,212.7401909c10.7246635,7.0531062,12.1666297,23.4216174,11.5057375,35.8126021-.480703,9.0640357-8.3213628,16.5755238-18.6104659,17.7732198-36.9053386,4.302815-68.7938708,4.524645-94.4639225,3.0607626-30.101124-1.3603045-54.5845093-6.5060114-58.1894605-7.2600951-8.4565523-1.7595842-14.7050723-7.9994092-15.4561068-15.5700234-1.231666-12.3466521.6458844-27.0590616,10.3040633-34.1713416,4.2357801-3.1198887,14.0892512-7.5706142,25.5799094-12.1839482,36.3045968-14.608927,78.1967737-14.4758338,114.3361177.428795,10.4092133,4.3028388,19.6618474,8.5908843,24.9941278,12.1100288Z"/>
    <path class="j" d="M382.1341325,211.4100211c-5.3706337-3.600425-14.6899216-7.9877841-25.1740549-12.3902463-36.3995034-15.2495944-78.5932423-15.3857368-115.1591182-.4388241-11.5734394,4.7203661-21.4978524,9.2740976-25.7641245,12.4660239-9.7276913,7.2769372-11.6187726,22.3298576-10.3781972,34.9623969.5280849,5.4069384,3.7594365,10.144623,8.5568189,13.1286075-2.6217242-2.5610973-4.3136302-5.8073138-4.675962-9.3672891-1.1859755-11.5878755.6219195-25.3960755,9.9214114-32.0711751,4.0785791-2.9281935,13.5661213-7.1053954,24.6301046-11.4350816,34.9565367-13.7110779,75.2931168-13.586227,110.0905706.4023765,10.0227023,4.0384867,18.9317286,8.0629185,24.0659772,11.3657121,10.3264083,6.6196659,11.7147989,21.9822954,11.0784909,33.6116926-.2725945,5.0104221-3.0159297,9.503765-7.2391794,12.5902553,6.6814839-3.0959,11.2704958-9.1848606,11.6357576-16.1827476.6656804-12.677801-.7866245-29.4253193-11.5884949-36.6417011Z"/>
  </g>
  <g>
    <path class="g" d="M212.0690517,333.9107293c-4.2965975-.4085464-8.5325681-.2571103-12.5870394.2119677-14.5537315,1.6942167-26.9289462,7.6247138-32.1332074,7.6247138-.181547,0-.3630941-.0151508-.5295618-.0302777-.1058409,0-.2117533-.0149602-.3176656-.0452617-.1210393-.0151508-.2269517-.0302777-.332864-.0605554,0-.0151746-.0150078-.0151746-.0150078-.0302777-.1513646-.0454523-.2874832-.1060077-.4085702-.181547-4.4629283-2.5871585-4.6293008-10.3479433,12.7987927-25.4765936,3.5835114-3.1118131,7.1421765-5.6804381,10.5344215-7.79728,8.4046443-5.2446156,19.6864317-1.1847368,22.3561094,8.3555711,1.3242858,4.7323962,1.8805282,10.554694.6345928,17.4295406Z"/>
    <path class="j" d="M212.0690517,333.6384683v.272261c-4.2965975-.4085464-8.5325681-.2571103-12.5870394.2119677-14.5537315,1.6942167-26.9289462,7.6247138-32.1332074,7.6247138-.181547,0-.3630941-.0151508-.5295618-.0302777-.1058409,0-.2117533-.0149602-.3176656-.0452617-.1210393-.0151508-.2269517-.0302777-.332864-.0605554,0-.0151746-.0150078-.0151746-.0150078-.0302777-2.0878267-4.0242888,9.4410657-13.1619344,20.7004842-16.6113044,9.2243336-2.8258544,25.2148619-1.7245897,25.2148619,8.6687344Z"/>
  </g>
  <g>
    <path class="i" d="M333.0595677,239.4017595c-.2053928,0-.4144304-.0280861-.6220148-.0871645-1.2011025-.3442509-1.9006577-1.5882091-1.5623385-2.7922893.0443088-.1566055,1.1213466-3.9003671,4.301481-7.4062427.8413435-.9277933,2.2766633-.9957573,3.2052189-.1566293.928508.8421296.9979727,2.2781641.155867,3.206005-2.431101,2.6800165-3.2880002,5.5654019-3.2960758,5.5949173-.2881502.9928034-1.1966954,1.6414035-2.1821378,1.6414035ZM363.0811741,234.9326197c-.6862626,0-1.3651404-.3102332-1.8113016-.8997787-1.4544965-1.9235506-3.1003309-3.4556114-4.8917173-4.5518496-1.0688669-.6544841-1.4049945-2.0521176-.7504866-3.1202698.6551988-1.069653,2.0528323-1.4035652,3.1202698-.750558,2.2774256,1.3947034,4.3435505,3.3064622,6.1415595,5.6836064.7564182,1.0001644.5584817,2.4229062-.4409918,3.1793483-.409261.3102808-.8901308.4595015-1.367332.4595015ZM343.0231915,228.6536552c-.9108559,0-1.7691844-.5510969-2.1171277-1.4508279-.4520691-1.1686093.1292579-2.4835331,1.297891-2.9356021,1.6709189-.6456462,3.4770511-1.0622682,5.3674178-1.2365972,1.0518818-.0945255,2.0543093-.1019579,3.0161203-.0399018,1.2506283.0827574,2.1976459,1.1642261,2.1148885,2.4141159-.0819951,1.2498422-1.1516481,2.1939059-2.413306,2.1156508-.7350499-.0488112-1.5025454-.0428795-2.3033201.0309924-1.4700046.1344272-2.865375.4550468-4.1448517.9499954-.2689021.1033872-.5458799.1521746-.8177121.1521746Z"/>
    <path class="i" d="M239.1253976,239.4017595c-.2053928,0-.4144304-.0280861-.6220148-.0871645-1.2011025-.3442509-1.9006577-1.5882091-1.5623385-2.7922893.0443088-.1566055,1.1213466-3.9003671,4.301481-7.4062427.8406288-.9277933,2.2766633-.9957573,3.2052189-.1566293.9285318.8421296.9979966,2.2781641.155867,3.206005-2.431101,2.6800165-3.2880002,5.5654019-3.2961234,5.5949173-.2880788.9928034-1.1966954,1.6414035-2.1820902,1.6414035ZM269.147004,234.9311427c-.6862626,0-1.3651404-.310257-1.8113016-.8997787-1.4544965-1.9235744-3.1003547-3.4556114-4.8917173-4.5518496-1.0688669-.6545079-1.4049945-2.0521176-.7504866-3.1202698.6551988-1.068176,2.0528323-1.4050421,3.1202698-.750558,2.2774256,1.3947034,4.3435744,3.3064622,6.1415595,5.6836064.756442,1.000212.5584817,2.4229539-.4409918,3.1793959-.409261.3102332-.8901308.4594539-1.367332.4594539ZM249.0889738,228.6536552c-.9108083,0-1.7691844-.5510969-2.1170801-1.4508279-.4521167-1.1686093.1292579-2.4835331,1.297891-2.9356021,1.6709189-.6456462,3.4770511-1.0622682,5.3674178-1.2365972,1.0511672-.0945255,2.0550477-.1019579,3.0161203-.0399018,1.2506283.0827574,2.1976459,1.1642261,2.1148885,2.4141159-.0827098,1.2498422-1.1590091,2.1939059-2.4133536,2.1156508-.7350023-.0488112-1.5024739-.0428795-2.3032724.0309924-1.4700046.1344272-2.8654227.4550468-4.1448279.9499954-.2689259.1033872-.5459037.1521746-.8177836.1521746Z"/>
    <path class="i" d="M298.5133163,257.1188548c-.4654332,0-.9308187-.0147696-1.3983958-.0413787-5.1974958-.3072793-9.6157043-2.287002-12.1221065-5.4323802-.7808357-.9795584-.6190371-2.4081843.361236-3.1882577.9795107-.7815504,2.4081366-.620514,3.1889723.3604737,1.679066,2.106789,4.9832651,3.5014448,8.8393233,3.7289682,4.725464.2866018,9.2773851-1.1494327,11.8857213-3.7319459.8908693-.8820075,2.3276661-.8745989,3.209626.0177473.8812929.8908693.8739319,2.3269038-.016985,3.2089351-3.2222039,3.1882339-8.4706549,5.0778382-13.9473916,5.0778382Z"/>
  </g>
  <path class="j" d="M434.0268097,357.6507508c5.9828815.3389386,11.048642-4.363156,11.156341-10.3537797l1.8158754-75.4809529c11.4424426-2.8154919,20.2133969-12.8181361,20.9144767-25.1964476.4434693-7.8197679-2.4265033-15.0561364-7.3835643-20.3590681l-5.5835066-.3163316-1.0707964,18.90157-14.1185761,7.5564878-12.7056012-9.077114,1.0716064-18.9010221-5.5837925-.316951c-5.5240709,4.7096462-9.193246,11.5745352-9.6365247,19.3949702-.7013181,12.3771919,6.8832558,23.3075103,17.934137,27.397095l-6.7243872,75.2031652c-.5702735,5.9652771,3.9320264,11.2095116,9.9143124,11.5483788ZM430.8820986,346.4965776c.1089378-1.9197867,1.7537954-3.3899104,3.6744874-3.2808774,1.920287.1096524,3.3890767,1.7548436,3.2800675,3.6746303-.1087472,1.9206682-1.7538431,3.3898152-3.6742015,3.2804962-1.9204299-.1084137-3.3890767-1.7544624-3.2803533-3.6742492Z"/>
  <path class="g" d="M446.6147305,286.5567759s-7.8746298,5.7735819-7.0787386,12.5020427c.5759432,4.868753,4.1425172,6.366129,6.621929,6.4869301,3.2511476-2.1752056,8.166544-11.4318418.4568096-18.9889727Z"/>
  <path class="i" d="M128.1429096,237.5908629l-92.498448,1.9153797c-6.8051434.133522-12.7473608-5.5514185-14.1087849-13.4979667l-5.0379601-45.8173188c-2.1285146-12.4269797,5.6971848-24.0418932,16.3391859-24.2507163l126.0558207-2.4734326c8.0155902-.1572963,14.61253,7.571043,14.6053596,17.1106362l-.0386154,50.9258635c-.0066463,8.508508-5.7176956,15.4109642-12.8671914,15.5512755l-9.0105791.1768065s-4.3299005,10.0505025,4.1426362,24.0956117c0,0-23.7884271-3.7526234-27.5814234-23.7361385Z"/>
  <text class="c" transform="translate(34.8414563 211.4367778) rotate(.6932894)"><tspan x="0" y="0">Sorry</tspan></text>
  <text class="b" transform="translate(121.2474594 499.0200175)"><tspan x="0" y="0">No Results Found!</tspan></text>
</svg>