<?xml version="1.0" encoding="UTF-8"?>
<svg id="Layer_2" data-name="Layer 2" xmlns="http://www.w3.org/2000/svg" xmlns:xlink="http://www.w3.org/1999/xlink" viewBox="0 0 147.77 148.44">
  <defs>
    <style>
      .cls-1 {
        fill: none;
      }

      .cls-2 {
        fill-rule: evenodd;
      }

      .cls-2, .cls-3 {
        fill: #fff;
      }

      .cls-4 {
        fill: url(#linear-gradient);
      }
    </style>
    <linearGradient id="linear-gradient" x1="73.88" y1="132.64" x2="74.5" y2="28.11" gradientTransform="translate(0 152.4) scale(1 -1)" gradientUnits="userSpaceOnUse">
      <stop offset="0" stop-color="#57d163"/>
      <stop offset="1" stop-color="#23b33a"/>
    </linearGradient>
  </defs>
  <g id="Layer_1-2" data-name="Layer 1">
    <g>
      <path class="cls-3" d="M0,148.44l10.44-38.11C3.99,99.14.6,86.46.62,73.55.63,32.99,33.64,0,74.2,0c19.68.01,38.15,7.67,52.05,21.57,13.89,13.9,21.54,32.38,21.53,52.04-.02,40.55-33.03,73.55-73.58,73.55h-.03c-12.31,0-24.41-3.09-35.16-8.95L0,148.44Z"/>
      <path class="cls-1" d="M74.22,12.42c-33.73,0-61.17,27.42-61.18,61.13-.02,11.51,3.22,22.79,9.35,32.53l1.46,2.31-6.18,22.56,23.15-6.07,2.24,1.32c9.39,5.57,20.15,8.52,31.13,8.52h.02c33.71,0,61.14-27.43,61.15-61.13.05-16.23-6.39-31.8-17.9-43.25-11.44-11.51-27.01-17.97-43.24-17.93h0Z"/>
      <path class="cls-4" d="M74.22,12.42c-33.73,0-61.17,27.42-61.18,61.13-.02,11.51,3.22,22.79,9.35,32.53l1.46,2.31-6.18,22.56,23.15-6.07,2.24,1.32c9.39,5.57,20.15,8.52,31.13,8.52h.02c33.71,0,61.14-27.43,61.15-61.13.05-16.23-6.39-31.8-17.9-43.25-11.44-11.51-27.01-17.97-43.23-17.93Z"/>
      <path class="cls-2" d="M55.81,42.8c-1.38-3.06-2.83-3.12-4.14-3.18l-3.52-.04c-1.23,0-3.22.46-4.9,2.3s-6.44,6.29-6.44,15.33,6.59,17.78,7.51,19.01,12.72,20.38,31.41,27.75c15.53,6.12,18.69,4.91,22.06,4.6s10.88-4.45,12.41-8.74,1.53-7.97,1.07-8.74-1.68-1.23-3.53-2.15-10.88-5.37-12.56-5.98-2.91-.92-4.14.92-4.75,5.98-5.82,7.21-2.14,1.38-3.98.46-7.76-2.86-14.78-9.12c-5.46-4.87-9.15-10.89-10.23-12.73s-.11-2.83.81-3.75c.82-.82,1.84-2.15,2.76-3.22s1.22-1.84,1.84-3.07.31-2.3-.15-3.22-4.03-10.01-5.67-13.65"/>
    </g>
  </g>
</svg>